<mxfile host="app.diagrams.net" modified="2023-10-26T00:50:08.274Z" agent="Mozilla/5.0 (Windows NT 10.0; Win64; x64) AppleWebKit/537.36 (KHTML, like Gecko) Chrome/118.0.0.0 Safari/537.36" version="21.8.2" etag="5TmgNSItM_p3gKxpN5cc" type="github">
  <diagram name="PÃ¡gina-1" id="N8HXg08IS7hfmjy_oPON">
    <mxGraphModel>
      <root>
        <mxCell id="0" />
        <mxCell id="1" parent="0" />
      </root>
    </mxGraphModel>
  </diagram>
</mxfile>
